<?xml version="1.0" encoding="UTF-8"?>
<!DOCTYPE svg PUBLIC "-//W3C//DTD SVG 1.1//EN" "http://www.w3.org/Graphics/SVG/1.1/DTD/svg11.dtd">
<!-- Creator: CorelDRAW 2020 (64-Bit) -->
<svg xmlns="http://www.w3.org/2000/svg" xml:space="preserve" width="849.564mm" height="402.301mm" version="1.1" style="shape-rendering:geometricPrecision; text-rendering:geometricPrecision; image-rendering:optimizeQuality; fill-rule:evenodd; clip-rule:evenodd"
viewBox="0 0 37961.13 17976.02"
 xmlns:xlink="http://www.w3.org/1999/xlink"
 xmlns:xodm="http://www.corel.com/coreldraw/odm/2003">
 <defs>
  <style type="text/css">
   <![CDATA[
    .fil0 {fill:#FEFEFE;fill-rule:nonzero}
   ]]>
  </style>
 </defs>
 <g id="Слой_x0020_1">
  <metadata id="CorelCorpID_0Corel-Layer"/>
  <path class="fil0" d="M6807.76 8458.38c621.6,-125.29 988.58,-521.4 988.58,-1078.25 0,-280.53 -107.16,-542.29 -293.97,-728.93 -242.17,-242.33 -619.18,-375.55 -1061.91,-375.55l-1581.04 0 0 3735.28 417.47 0 0 -1484.72 1059.64 0 1119.53 1455.26 22.34 29.46 529.17 0 -94.38 -121.89 -1105.45 -1430.66zm-1530.86 -324.24l0 -1461.57 1148.18 0c597,0 953.61,264.67 953.61,707.56 0,462.15 -380.25,754.01 -968.99,754.01l-1132.81 0zm5349.02 -1840.2l-20.07 -43.54 -353.22 0 -20.07 43.54 -1669.1 3609.5 -49.7 107.49 443.54 0 19.91 -44.19 435.77 -959.11 2017.3 0 435.45 959.11 20.07 44.19 459.24 0 -50.02 -107.49 -1669.1 -3609.5zm-1030.99 2321.46l828.96 -1815.28 824.92 1815.28 -1653.88 0zm4561.82 -2339.75l-1269.11 0 0 3735.28 1269.11 0c1146.89,0 1979.74,-785.58 1979.74,-1867.56 0,-1086.83 -832.85,-1867.72 -1979.74,-1867.72zm0 3338.2l-851.47 0 0 -2941.28 851.47 0c899.22,0 1552.39,618.36 1552.39,1470.8 0,869.92 -638.76,1470.48 -1552.39,1470.48zm2946.95 397.08l417.48 0 0 -3735.28 -417.48 0 0 3735.28zm2911.33 -2074.76c-827.67,-169.48 -984.2,-380.08 -984.2,-709.5 0,-358.23 336.37,-610.27 799.83,-610.27 396.59,0 710.96,118.98 1020.62,385.91l58.76 51.31 49.54 -60.87 169 -210.11 47.27 -58.76 -59.08 -47.43c-399.51,-321.32 -769.07,-452.12 -1276.07,-452.12 -699.62,0 -1227.5,437.88 -1227.5,1017.71 0,597.16 367.78,910.71 1268.94,1093.47 801.12,160.58 953.29,366 953.29,688.45 0,384.94 -341.88,646.21 -830.75,646.21 -488.06,0 -833.82,-143.75 -1233.82,-512.17l-56.98 -52.78 -51.31 58.44 -174.34 199.59 -49.21 56.98 56.17 49.21c458.92,409.71 919.78,592.47 1494.11,592.47 743.98,0 1263.44,-433.02 1263.44,-1053 0,-578.7 -370.37,-896.31 -1237.7,-1072.75zm3292.23 0c-827.19,-169.48 -984.05,-380.08 -984.05,-709.5 0,-358.23 336.7,-610.27 800.15,-610.27 396.43,0 710.8,118.98 1020.3,385.91l59.08 51.31 49.54 -60.87 168.67 -210.11 47.43 -58.76 -59.08 -47.43c-399.35,-321.32 -769.24,-452.12 -1275.91,-452.12 -699.62,0 -1227.5,437.88 -1227.5,1017.71 0,597.16 367.46,910.71 1268.78,1093.47 801.28,160.58 953.13,366 953.13,688.45 0,384.94 -341.72,646.21 -830.59,646.21 -487.89,0 -833.66,-143.75 -1233.65,-512.17l-57.3 -52.78 -51.15 58.44 -174.18 199.59 -49.21 56.98 56.01 49.21c459.4,409.71 919.94,592.47 1494.11,592.47 743.98,0 1263.27,-433.02 1263.27,-1053 0,-578.7 -370.21,-896.31 -1237.86,-1072.75zm3830.3 -1722.19c-925.77,0 -1882.93,721.96 -1882.93,1929.39 0,1104.15 804.68,1929.07 1872.58,1929.07 925.6,0 1882.93,-721.64 1882.93,-1929.07 0,-1104.15 -805.01,-1929.39 -1872.58,-1929.39zm0 3466.56c-816.02,0 -1455.26,-675.5 -1455.26,-1537.17 0,-881.09 621.28,-1537.33 1444.9,-1537.33 816.02,0 1455.26,675.18 1455.26,1537.33 0,880.93 -621.28,1537.17 -1444.9,1537.17zm5557.03 -3404.89l0 2976.57 -2337.81 -2948.24 -23.15 -28.33 -362.76 0 0 3735.28 407.44 0 0 -3042.94 2388.96 3014.29 22.66 28.65 311.77 0 0 -3735.28 -407.12 0z"/>
  <path class="fil0" d="M9753.66 44.9l-930.78 1393.68 -924.41 -1384.81 -6.1 -8.87 -326.52 0 0 2625.49 324.86 0 0 -2043.95 909.99 1335.2 36.59 0 910 -1338.52 0 2047.28 332.62 0 0 -2625.49 -326.25 0zm1015.61 0l0 2625.49 1927.54 0 0 -306.84 -1594.92 0 0 -863.71 1410.31 0 0 -307.12 -1410.31 0 0 -840.98 1576.35 0 0 -306.84 -1908.97 0zm4661.41 0l-930.79 1393.68 -924.41 -1384.81 -6.38 -8.87 -326.52 0 0 2625.49 324.86 0 0 -2043.95 910.27 1335.2 36.31 0 910.55 -1338.52 0 2047.28 332.62 0 0 -2625.49 -326.52 0zm2184.76 2625.21l-1168.89 0 0 -2625.21 1120.66 0c293.82,0 532.47,80.94 690.19,234.22 114.76,118.91 172.41,263.05 172.41,428.53l0 7.21c0,329.01 -194.03,503.64 -375.03,595.11 344.26,116.42 518.61,327.63 518.61,627.55l0 6.93c0,447.93 -366.99,725.67 -957.95,725.67zm-839.87 -302.96l846.8 0c385.01,0 615.07,-165.2 615.07,-441l0 -7.21c0,-272.75 -236.72,-422.98 -666.35,-422.98l-795.52 0 0 871.19zm0 -1170.27l743.68 0c359.51,0 573.77,-164.93 573.77,-441.28l0 -7.21c0,-251.13 -206.22,-400.81 -551.87,-400.81l-765.58 0 0 849.3zm2335.83 -1151.98l0 2625.49 1927.26 0 0 -306.84 -1594.92 0 0 -863.71 1410.59 0 0 -307.12 -1410.59 0 0 -840.98 1576.62 0 0 -306.84 -1908.97 0zm4672.49 2625.49l-409.95 0 -6.1 -8.32 -743.41 -996.2 -707.65 0 0 1004.52 -332.34 0 0 -2625.21 1132.02 0c311.83,0 577.93,93.41 748.67,264.16 132.49,133.05 205.67,318.48 205.67,523.6l0 7.76c0,398.31 -249.47,676.88 -686.59,766.97l799.67 1062.72zm-1867.11 -1307.48l773.62 0c391.38,0 643.62,-200.68 643.62,-511.41l0 -6.93c0,-306.01 -239.21,-489.23 -640.57,-489.23l-776.67 0 0 1007.57zm4663.9 1351.83c-760.87,0 -1334.64,-580.42 -1334.64,-1349.61l0 -7.76c0,-761.15 589.57,-1357.37 1341.85,-1357.37 761.43,0 1335.2,580.7 1335.2,1350.17l0 7.21c0,760.87 -589.85,1357.37 -1342.4,1357.37zm0 -2403.74c-564.9,0 -991.21,447.1 -991.21,1039.16l0 7.21c0,587.35 438.78,1046.92 998.42,1046.92 565.18,0 991.49,-447.1 991.49,-1039.16l0 -7.76c0,-586.8 -438.51,-1046.37 -998.7,-1046.37zm1916.73 -266.1l0 2625.49 332.9 0 0 -1126.47 1399.22 0 0 -306.29 -1399.22 0 0 -882.28 1564.98 0 0 -310.44 -1897.88 0z"/>
  <g id="_2590404473616">
   <path class="fil0" d="M3615.81 17976.02l209.63 0 0 -5.5 -209.63 0 0 5.5zm-3615.81 -194.09l0 -85.31 150.06 -6.8c312.58,-14.57 383.97,-99.71 383.97,-1074.86l0 -2462.29c0,-975.14 -71.39,-1060.12 -383.97,-1074.37l-150.06 -7.28 0 -85.31 2099.37 0 0 85.31 -149.41 7.28c-320.19,14.24 -391.09,99.23 -391.09,1074.37l0 2462.29c0,975.14 70.9,1060.28 391.09,1074.86l149.41 6.8 0 85.31 -2099.37 0zm4825.03 0l0 -85.31 142.61 -6.8c227.28,-7.45 291.38,-28.98 291.38,-946.81l0 -1302.61c0,-533.06 -220.15,-839.49 -640.38,-839.49 -341.56,0 -583.56,192.47 -747.22,484.17l0 1657.93c0,917.83 64.1,939.36 299.47,946.81l141.96 6.8 0 85.31 -1821.91 0 0 -85.31 142.61 -6.8c234.72,-7.45 291.37,-28.98 291.37,-946.81l0 -1209.53c0,-918.16 -56.65,-932.57 -291.37,-946.81l-142.61 -6.8 0 -85.3 1366.07 0 0 462.64c171.27,-285.23 448.4,-541.15 1039.24,-541.15 697.36,0 1309.25,341.56 1309.25,1195.45l0 1131.51c0,917.83 56.66,939.36 292.03,946.81l142.29 6.8 0 85.31 -1814.79 0zm4512.12 -3202.22c-185.02,-49.86 -341.56,-78.51 -498.25,-78.51 -633.26,0 -867.66,505.37 -867.66,1615.52 0,904.07 262.89,1572.62 896.15,1572.62l469.76 0 0 -3109.63zm2619.15 -697.2c-313.23,0 -526.42,-185.18 -526.42,-462.64 0,-291.7 213.19,-484.17 526.42,-484.17 313.23,0 534.02,185.35 534.02,469.77 0,284.74 -213.67,477.05 -534.02,477.05zm2619.15 3942l-1025 -2454.84c-255.93,-619.02 -341.56,-754.18 -562.19,-782.99l-49.54 -6.96 0 -85.31 1779.02 0 0 85.31 -135.49 6.96c-248.8,14.24 -256.25,177.74 -21.2,761.46l661.91 1615.52 448.39 -1160c206.07,-526.75 99.55,-1202.74 -206.39,-1216.98l-121.08 -6.96 0 -85.31 1216.66 0 0 85.31 -56.66 6.96c-199.27,28.81 -320.35,220.64 -718.89,1216.98l-804.2 2020.85 -405.34 0zm2931.89 -3942c-312.91,0 -526.26,-185.18 -526.26,-462.64 0,-291.7 213.35,-484.17 526.26,-484.17 313.23,0 533.86,185.35 533.86,469.77 0,284.74 -213.51,477.05 -533.86,477.05zm3707.76 697.2c-185.02,-49.86 -341.56,-78.51 -497.93,-78.51 -633.26,0 -868.46,505.37 -868.46,1615.52 0,904.07 263.21,1572.62 896.63,1572.62l469.76 0 0 -3109.63zm4305.73 3202.22l0 -455.2c-163.82,277.45 -427.19,540.5 -975.14,540.5 -661.59,0 -1259.39,-348.68 -1259.39,-1202.73l0 -1131.03c0,-918.16 -56.98,-932.57 -284.58,-946.81l-142.29 -6.8 0 -85.3 1373.03 0 0 2341.2c0,561.87 227.92,846.61 591,846.61 327.48,0 526.42,-199.59 682.95,-484.17l0 -1664.73c0,-918.16 -64.1,-932.57 -298.82,-946.81l-142.29 -6.8 0 -85.3 1387.6 0 0 2248.45c0,917.83 56.65,939.36 291.7,946.81l142.45 6.8 0 85.31 -1366.23 0zm3409.1 -92.59c270.17,0 547.3,-206.39 682.79,-490.97l0 -939.04c-192.15,-92.75 -384.29,-149.73 -626.46,-149.73 -327.15,0 -632.93,184.86 -632.93,846.77 0,547.95 256.25,732.97 576.6,732.97zm2320.33 92.59l0 -85.31 142.45 -6.8c234.39,-7.45 291.54,-28.98 291.54,-946.81l0 -2718.38c0,-917.83 -57.15,-939.2 -291.54,-946.32l-142.45 -7.28 0 -85.31 1380.15 0 0 3757.29c0,917.83 64.26,939.36 299.3,946.81l141.97 6.8 0 85.31 -1821.42 0zm3629.25 92.59c-213.84,0 -398.86,-42.73 -619.17,-149.41 -106.52,-35.45 -185.02,-71.06 -263.54,-71.06 -120.76,0 -248.97,71.06 -384.13,220.48l-77.86 0 0 -1188.33 77.86 0 64.1 170.94c149.41,419.58 512.17,924.64 1202.74,924.64 377.01,0 633.26,-163.5 633.26,-498.25 0,-825.24 -1821.91,-625.65 -1821.91,-1878.08 0,-612.22 533.87,-996.35 1152.88,-996.35 199.43,0 362.92,49.7 576.6,149.25 71.22,28.82 128.2,57.14 192.31,57.14 91.95,0 205.91,-71.39 312.91,-206.39l71.06 0 0 1067.25 -78.19 0 -57.3 -170.61c-149.09,-434.15 -511.85,-804.2 -1009.94,-804.2 -320.35,0 -505.37,156.53 -505.37,419.91 0,839.65 1835.99,619.01 1835.99,1921.3 0,647.66 -576.6,1031.79 -1302.29,1031.79zm-5252.22 -92.43l0 -455.84c-156.86,277.78 -441.75,540.83 -1053.81,540.83 -689.91,0 -1202.25,-355.64 -1202.25,-939.04 0,-626.3 497.93,-939.2 1330.46,-939.2 398.86,0 641.03,49.86 911.04,170.94l0 -890.15c0,-497.93 -227.6,-768.1 -690.24,-768.1 -312.91,0 -448.07,78.19 -448.07,191.82 0,128.53 163.5,206.71 163.5,455.52 0,242.17 -199.27,434.31 -490.97,434.31 -327.48,0 -519.46,-192.15 -519.46,-441.28 0,-426.7 477.05,-732.81 1323.65,-732.81 803.87,0 1608.07,341.24 1608.07,1167.13l0 1166.96c0,917.83 56.98,939.04 291.7,946.16l142.29 7.45 0 85.3 -1365.91 0zm-9009.67 -0.32c-961.06,0 -1793.58,-505.05 -1793.58,-1665.05 0,-1017.39 718.89,-1707.63 1793.58,-1707.63 184.7,0 391.41,21.37 597.48,78.03l0 -462.64c0,-917.83 -56.65,-939.04 -291.7,-946.49l-142.29 -7.12 0 -85.3 1380.48 0 0 3757.29c0,917.83 63.78,939.52 291.7,946.49l142.29 7.45 0 84.98 -1977.96 0zm-4006.59 0l0 -85.31 142.29 -7.12c234.4,-6.96 291.86,-28.65 291.86,-946.49l0 -1209.53c0,-917.84 -57.46,-932.24 -291.86,-946.49l-142.29 -7.12 0 -85.14 1380.15 0 0 2248.29c0,917.83 64.26,939.52 299.14,946.49l142.29 7.12 0 85.31 -1821.58 0zm-5551.69 0l0 -85.31 142.94 -7.12c234.72,-6.96 291.37,-28.65 291.37,-946.49l0 -1209.53c0,-917.84 -56.65,-932.24 -291.37,-946.49l-142.94 -7.12 0 -85.14 1380.8 0 0 2248.29c0,917.83 64.1,939.52 298.82,946.49l142.61 7.12 0 85.31 -1822.23 0zm-2320 0c-961.06,0 -1793.42,-505.05 -1793.42,-1665.05 0,-1017.39 719.05,-1707.63 1793.42,-1707.63 184.7,0 391.09,21.37 597.81,78.03l0 -462.64c0,-917.83 -56.98,-939.04 -292.02,-946.49l-142.29 -7.12 0 -85.3 1380.8 0 0 3757.29c0,917.83 63.78,939.52 291.38,946.49l142.29 7.45 0 84.98 -1977.96 0z"/>
   <path class="fil0" d="M37434.55 17781.93c-320.68,0 -533.86,-220.48 -533.86,-547.95 0,-320.03 213.19,-547.95 526.74,-547.95 320.03,0 533.7,220.48 533.7,541.15 0,327.15 -213.67,554.75 -526.58,554.75z"/>
  </g>
 </g>
</svg>
