<svg width="50" height="50" viewBox="0 0 50 50" fill="none" xmlns="http://www.w3.org/2000/svg">
<path fill-rule="evenodd" clip-rule="evenodd" d="M40.5274 21.6309C45.8681 22.3425 50 26.8882 50 32.3731C50 37.8579 45.8682 42.4037 40.5274 43.1153V48.0957C40.5274 48.9046 39.8716 49.5605 39.0626 49.5605H15.6252C14.8163 49.5605 14.1604 48.9046 14.1604 48.0957V44.2767L0.940848 39.2096C0.185383 38.92 -0.192251 38.072 0.097591 37.3169L6.19502 21.4319C4.27237 19.1357 3.22296 16.2584 3.22296 13.2326C3.22296 6.17863 8.96189 0.439697 16.0159 0.439697C19.1812 0.439697 22.2535 1.63207 24.5906 3.74017C25.0667 3.55655 25.4479 3.40788 25.7564 3.28758C26.9652 2.8162 27.057 2.7804 27.3618 2.78421C27.7396 2.789 28.0913 2.94154 28.3433 3.17738L40.062 14.1148C40.3589 14.3919 40.5274 14.7796 40.5274 15.1857V21.6309ZM29.338 37.1582C26.0772 30.5581 30.2731 22.6266 37.5978 21.6326V15.8222L27.3439 6.25197L17.0901 15.8222V23.0382C21.4289 22.5752 24.9091 19.3376 25.7057 15.088H25.0002C24.1912 15.088 23.5353 14.4322 23.5353 13.6232C23.5353 12.8142 24.1912 12.1584 25.0002 12.1584H29.6877C30.4966 12.1584 31.1525 12.8142 31.1525 13.6232C31.1525 14.4322 30.4966 15.088 29.6877 15.088H28.6735C27.8279 20.9293 23.0384 25.4866 17.0901 25.9802V37.1582H29.338ZM9.60437 20.7253C10.9097 21.8431 12.4841 22.5964 14.1604 22.9176V15.1857C14.1604 14.7796 14.3289 14.3919 14.6257 14.1148L20.8184 8.33506L13.2381 11.2587L9.60437 20.7253ZM16.0159 3.36937C10.5773 3.36937 6.15263 7.79405 6.15263 13.2326C6.15263 14.9799 6.60703 16.6627 7.458 18.1417L10.7362 9.60126C10.8847 9.21435 11.1901 8.90849 11.5766 8.75947L21.4079 4.9677C19.8228 3.92679 17.9689 3.36937 16.0159 3.36937ZM8.50526 23.5888L3.35792 36.9986L14.1604 41.1393V25.8907C12.1214 25.5921 10.1774 24.8011 8.50526 23.5888ZM17.0901 40.0879V46.6308H37.5978V43.1136C35.2205 42.791 33.0859 41.695 31.4561 40.0879H17.0901ZM31.1525 32.3731C31.1525 36.7347 34.701 40.2832 39.0626 40.2832C43.4781 40.2832 47.0704 36.7347 47.0704 32.3731C47.0704 28.0115 43.4781 24.463 39.0626 24.463C34.701 24.463 31.1525 28.0115 31.1525 32.3731ZM40.5276 33.128L41.5327 32.6255C42.2564 32.2636 43.1362 32.5569 43.4979 33.2806C43.8598 34.0041 43.5665 34.8841 42.8429 35.2458C39.8611 36.7366 39.7038 36.8156 39.7033 36.8148C39.7032 36.8146 39.7123 36.8097 39.6928 36.8191C39.4529 36.9336 39.1835 36.9845 38.902 36.9537C38.8623 36.9493 38.8288 36.9458 38.7956 36.9406C38.5369 36.8996 38.2951 36.752 35.2827 35.2458C34.5591 34.8841 34.2658 34.0041 34.6276 33.2806C34.9896 32.557 35.8696 32.2638 36.5929 32.6255L37.5979 33.128V29.2482C37.5979 28.4392 38.2538 27.7833 39.0628 27.7833C39.8718 27.7833 40.5276 28.4392 40.5276 29.2482V33.128Z" fill="url(#paint0_linear)"/>
<defs>
<linearGradient id="paint0_linear" x1="1.74079e-07" y1="25.3276" x2="50" y2="25.3276" gradientUnits="userSpaceOnUse">
<stop stop-color="#B47E11"/>
<stop offset="1" stop-color="#FAE66F"/>
</linearGradient>
</defs>
</svg>
