<svg width="44" height="50" viewBox="0 0 44 50" fill="none" xmlns="http://www.w3.org/2000/svg">
<path fill-rule="evenodd" clip-rule="evenodd" d="M43.7325 48.1853L42.1702 41.8383C42.0091 41.1838 41.4221 40.7237 40.748 40.7237H39.088V38.8684C39.088 36.4456 37.1169 34.4744 34.694 34.4744H28.1518V31.1545H29.9614C32.371 31.1545 34.5062 29.7088 35.4011 27.4716L37.4209 22.4221C37.8052 21.4615 37.097 20.4135 36.061 20.4135H23.4648V5.37614C23.4648 4.0301 24.5599 2.93501 25.9059 2.93501C27.3889 2.93501 28.3471 3.8932 28.3471 5.37614V7.81727C28.3471 8.62616 29.0029 9.28195 29.8117 9.28195C30.6206 9.28195 31.2764 8.62616 31.2764 7.81727V5.37614C31.2764 0.117948 25.1367 -1.63088 22.0001 1.69589C18.8597 -1.63498 12.7238 0.122635 12.7238 5.37614V7.81727C12.7238 8.62616 13.3796 9.28195 14.1885 9.28195C14.9974 9.28195 15.6532 8.62616 15.6532 7.81727V5.37614C15.6532 3.8932 16.6114 2.93501 18.0943 2.93501C19.4404 2.93501 20.5354 4.0301 20.5354 5.37614V20.4135H7.93922C6.90467 20.4135 6.19459 21.4603 6.57931 22.4221L8.59911 27.4717C9.49402 29.7088 11.6292 31.1545 14.0388 31.1545H15.8485V34.4744H9.30625C6.88338 34.4744 4.91222 36.4456 4.91222 38.8684V40.7237H3.25225C2.57821 40.7237 1.99116 41.1838 1.83005 41.8383L0.267725 48.1853C0.0404067 49.1088 0.740815 50 1.68993 50H42.3103C43.2612 50 43.9594 49.107 43.7325 48.1853ZM11.3188 26.3838L10.1025 23.3429H33.8976L32.6813 26.3837C32.2338 27.5023 31.1662 28.2251 29.9614 28.2251H14.0387C12.8339 28.2251 11.7663 27.5023 11.3188 26.3838ZM18.7777 31.1545H25.2223V34.4744H18.7777V31.1545ZM7.84148 38.8684C7.84148 38.0608 8.49853 37.4038 9.30615 37.4038H34.6939C35.5015 37.4038 36.1586 38.0608 36.1586 38.8684V40.7237H7.84148V38.8684ZM3.55876 47.0706L4.40007 43.6531H39.6L40.4413 47.0706H3.55876ZM14.1883 16.3124C14.9972 16.3124 15.653 15.6567 15.653 14.8478V14.0666C15.653 13.2577 14.9972 12.6019 14.1883 12.6019C13.3794 12.6019 12.7236 13.2577 12.7236 14.0666V14.8478C12.7236 15.6568 13.3794 16.3124 14.1883 16.3124ZM28.3472 14.0666C28.3472 13.2577 29.003 12.6019 29.8118 12.6019C30.6208 12.6019 31.2765 13.2577 31.2765 14.0666V14.8478C31.2765 15.6567 30.6207 16.3124 29.8118 16.3124C29.003 16.3124 28.3472 15.6567 28.3472 14.8478V14.0666Z" fill="url(#paint0_linear)"/>
<defs>
<linearGradient id="paint0_linear" x1="0.22461" y1="25.3333" x2="43.7756" y2="25.3333" gradientUnits="userSpaceOnUse">
<stop stop-color="#B47E11"/>
<stop offset="1" stop-color="#FAE66F"/>
</linearGradient>
</defs>
</svg>
