<svg width="50" height="50" viewBox="0 0 50 50" fill="none" xmlns="http://www.w3.org/2000/svg">
<path fill-rule="evenodd" clip-rule="evenodd" d="M47.0702 12.4999C47.0702 13.3076 47.7273 13.9647 48.535 13.9647C49.344 13.9647 49.9998 14.6206 49.9998 15.4295V33.0072C49.9998 33.8162 49.344 34.472 48.535 34.472C47.7273 34.472 47.0702 35.1292 47.0702 35.9369C47.0702 36.7458 46.4143 37.4017 45.6054 37.4017H38.4879L40.4795 40.8159C43.3193 40.2315 45.996 42.4048 45.996 45.3116C45.996 46.532 45.5262 47.6941 44.6733 48.5838C42.8631 50.4724 39.9491 50.4719 38.1392 48.5838C36.4561 46.828 36.363 44.1125 37.951 42.2956L35.9376 38.8441L33.9243 42.2956C35.5121 44.1123 35.4194 46.8278 33.736 48.5838C31.9258 50.4724 29.0118 50.4719 27.202 48.5838C26.3491 47.694 25.8793 46.532 25.8793 45.3116C25.8793 42.4009 28.5603 40.2323 31.3957 40.8159L33.3874 37.4017H4.3954C3.58644 37.4017 2.9306 36.7458 2.9306 35.9369C2.9306 35.1292 2.27348 34.472 1.46579 34.472C0.656821 34.472 0.000976562 33.8162 0.000976562 33.0072V15.4295C0.000976562 14.6206 0.656821 13.9647 1.46579 13.9647C2.27348 13.9647 2.9306 13.3076 2.9306 12.4999C2.9306 11.6909 3.58644 11.0351 4.3954 11.0351H9.56257L5.30495 9.12517C2.71839 7.97569 2.17788 4.52548 4.30097 2.63832L6.24028 0.927809C8.09336 -0.719613 11.0111 -0.0744137 12.2357 2.10239L16.4068 9.51315L20.5782 2.102C21.7893 -0.0507814 24.6986 -0.738656 26.5777 0.93152L28.5085 2.63451C30.6416 4.53036 30.092 7.97706 27.5041 9.12722L23.251 11.0351H45.6054C46.4143 11.0351 47.0702 11.6909 47.0702 12.4999ZM24.6357 3.12493C24.1737 2.71429 23.4363 2.9968 23.1315 3.53869L19.8642 9.34353L26.3096 6.45219C26.9689 6.15913 27.0935 5.29626 26.5664 4.82782L24.6357 3.12493ZM8.18233 3.12112L6.24302 4.83162C5.71881 5.29753 5.84967 6.16138 6.49936 6.45014L12.9495 9.34343L9.68239 3.53898C9.37312 2.98899 8.63271 2.72064 8.18233 3.12112ZM2.9306 16.6434V31.7934C4.17744 32.2355 5.16716 33.2252 5.60924 34.472H14.942V15.7617L13.6265 16.9311C11.856 18.5049 10.8406 20.7662 10.8406 23.1351V25.7808C10.8406 26.5898 10.1847 27.2456 9.37576 27.2456C8.56679 27.2456 7.91095 26.5898 7.91095 25.7808V23.1351C7.91095 19.9302 9.28484 16.8709 11.6802 14.7415L12.5541 13.9647H5.60924C5.16716 15.2116 4.17744 16.2013 2.9306 16.6434ZM28.8089 45.3116C28.8089 46.248 29.5847 47.0694 30.469 47.0694C31.3534 47.0694 32.1291 46.248 32.1291 45.3116C32.1291 44.3962 31.3844 43.6515 30.469 43.6515C29.5536 43.6515 28.8089 44.3962 28.8089 45.3116ZM41.4063 47.0694C42.2906 47.0694 43.0664 46.248 43.0664 45.3116C43.0664 44.3962 42.3217 43.6515 41.4063 43.6515C40.4908 43.6515 39.7461 44.3962 39.7461 45.3116C39.7461 46.248 40.5219 47.0694 41.4063 47.0694ZM44.3915 34.472C44.8336 33.2252 45.8233 32.2355 47.0702 31.7934V16.6433C45.8233 16.2012 44.8335 15.2115 44.3915 13.9646H37.4024V15.6247C37.4024 16.4337 36.7466 17.0895 35.9376 17.0895C35.1287 17.0895 34.4728 16.4337 34.4728 15.6247V13.9646H20.2596L21.1335 14.7414C23.5289 16.8708 24.9027 19.9301 24.9027 23.135V25.7807C24.9027 26.5897 24.2469 27.2456 23.4379 27.2456C22.629 27.2456 21.9731 26.5897 21.9731 25.7807V23.135C21.9731 20.7661 20.9576 18.5049 19.1871 16.931L17.8717 15.7617V34.472H33.3873L29.2037 27.3001C28.7961 26.6013 29.0321 25.7044 29.7309 25.2968C30.4296 24.8892 31.3266 25.1251 31.7343 25.8239L35.9376 33.0297L40.141 25.8239C40.5488 25.1251 41.446 24.8893 42.1443 25.2968C42.8431 25.7044 43.0792 26.6013 42.6716 27.3001L38.488 34.472H44.3915ZM34.4724 21.8747C34.4724 21.0658 35.1283 20.4099 35.9372 20.4099C36.7462 20.4099 37.402 21.0658 37.402 21.8747V24.9996C37.402 25.8086 36.7462 26.4645 35.9372 26.4645C35.1283 26.4645 34.4724 25.8086 34.4724 24.9996V21.8747Z" fill="url(#paint0_linear)"/>
<defs>
<linearGradient id="paint0_linear" x1="0.000976737" y1="25.3334" x2="49.9998" y2="25.3334" gradientUnits="userSpaceOnUse">
<stop stop-color="#B47E11"/>
<stop offset="1" stop-color="#FAE66F"/>
</linearGradient>
</defs>
</svg>
