<svg width="32" height="21" viewBox="0 0 32 21" fill="none" xmlns="http://www.w3.org/2000/svg">
<path d="M0 2.5C0 1.11929 1.11929 0 2.5 0H29.5C30.8807 0 32 1.11929 32 2.5V18.5C32 19.8807 30.8807 21 29.5 21H2.5C1.11929 21 0 19.8807 0 18.5V2.5Z" fill="#41479B"/>
<path d="M0 2.1C0 0.940202 0.859613 0 1.92 0H30.08C31.1404 0 32 0.940202 32 2.1V7H0V2.1Z" fill="white"/>
<path d="M0 18.9C0 20.0598 0.859613 21 1.92 21H30.08C31.1404 21 32 20.0598 32 18.9V14H0V18.9Z" fill="#FF4B55"/>
<path d="M0 7H32V14H0V7Z" fill="#41479B"/>
</svg>
