<svg width="32" height="27" viewBox="0 0 32 27" fill="none" xmlns="http://www.w3.org/2000/svg">
<path d="M16.1402 19.8613C15.2573 19.8613 14.4103 20.2122 13.7857 20.8366C13.1614 21.4612 12.8105 22.3079 12.8105 23.1911C12.8105 24.0741 13.1614 24.9211 13.7857 25.5455C14.4103 26.1701 15.2573 26.5207 16.1402 26.5207C17.0232 26.5207 17.8701 26.1701 18.4947 25.5455C19.119 24.9211 19.4699 24.0741 19.4699 23.1911C19.4688 22.3082 19.1176 21.462 18.4933 20.8377C17.8693 20.2137 17.0229 19.8625 16.1402 19.8613ZM16.1402 25.189C15.6104 25.189 15.1023 24.9783 14.7275 24.6037C14.3529 24.2291 14.1425 23.721 14.1425 23.1911C14.1425 22.6613 14.3529 22.1529 14.7275 21.7783C15.1023 21.4037 15.6104 21.1933 16.1402 21.1933C16.6701 21.1933 17.1781 21.4037 17.553 21.7783C17.9276 22.1529 18.138 22.6613 18.138 23.1911C18.138 23.721 17.9276 24.2291 17.553 24.6037C17.1781 24.9783 16.6701 25.189 16.1402 25.189Z" fill="#212121"/>
<path d="M0.529748 7.03995C0.396159 7.17011 0.322449 7.34567 0.324251 7.52784C0.326357 7.71001 0.403985 7.88385 0.540277 8.01142C0.824299 8.27663 1.27982 8.27203 1.55752 8.00108C4.0851 5.50161 7.27045 3.6977 10.7795 2.77912C14.2885 1.86024 17.9916 1.86024 21.501 2.77912C25.0101 3.6977 28.1954 5.50161 30.723 8.00108C31.0007 8.27203 31.4562 8.27663 31.7402 8.01142C32.0239 7.74593 32.0287 7.31091 31.7507 7.03995C29.0444 4.36579 25.6344 2.43573 21.878 1.45278C18.1216 0.469841 14.158 0.469841 10.4023 1.45278C6.6467 2.43573 3.23621 4.36579 0.529549 7.03995H0.529748Z" fill="#212121"/>
<path d="M16.1402 7.375C14.0049 7.37351 11.8911 7.78212 9.92449 8.57635C7.95757 9.37028 6.17845 10.5341 4.69242 11.9977C4.4109 12.2798 4.41871 12.7254 4.71023 12.9983C5.00175 13.2709 5.46857 13.2697 5.75849 12.9953C7.56008 11.2207 9.82824 9.94056 12.3254 9.28827C14.8229 8.63628 17.4575 8.63628 19.955 9.28827C22.4522 9.94056 24.7203 11.2207 26.5219 12.9953C26.8119 13.2697 27.2787 13.2709 27.5702 12.9983C27.8617 12.7254 27.8695 12.2798 27.588 11.9977C26.1019 10.5341 24.3228 9.37035 22.3559 8.57635C20.3893 7.78212 18.2755 7.37348 16.1402 7.375H16.1402Z" fill="#212121"/>
<path d="M16.1412 14.0342C13.7066 14.0285 11.3754 15.0656 9.68743 16.9051C9.40831 17.2047 9.41345 17.685 9.69922 17.978C9.98498 18.2706 10.4428 18.2652 10.7222 17.9659C12.1401 16.4235 14.0951 15.5523 16.1382 15.5523C18.1815 15.5523 20.1364 16.4235 21.5544 17.9659C21.8338 18.2671 22.2932 18.2738 22.5804 17.9808C22.8677 17.6882 22.8741 17.2066 22.5949 16.9051C20.9069 15.0656 18.5758 14.0285 16.1412 14.0342L16.1412 14.0342Z" fill="#212121"/>
</svg>
