<svg width="30" height="26" viewBox="0 0 30 26" fill="none" xmlns="http://www.w3.org/2000/svg">
<path d="M23.9656 3.85862C23.7607 3.85862 23.5559 3.85862 23.3452 3.85277C23.2866 3.85277 23.234 3.85277 23.1754 3.84692C23.0115 3.84106 22.8477 3.84106 22.6838 3.83521C22.637 3.83521 22.5901 3.83521 22.5433 3.82936C22.3443 3.82351 22.1395 3.8118 21.9404 3.80009C21.8995 3.80009 21.8643 3.79424 21.8234 3.79424C21.6419 3.78253 21.4605 3.77083 21.2849 3.75912C17.223 3.46062 14.0859 2.54171 11.6858 1.83935C10.0177 1.34771 8.70084 0.961426 7.65317 0.961426C5.72168 0.961426 3.90728 1.71644 2.54356 3.08021C1.17984 4.44398 0.430664 6.26421 0.430664 8.1957C0.430664 11.2275 2.30361 13.8322 4.955 14.903L7.55369 24.607H2.29772C1.97581 24.607 1.7124 24.8704 1.7124 25.1923C1.7124 25.5142 1.97578 25.7776 2.29772 25.7776H21.665C21.9869 25.7776 22.2504 25.5142 22.2504 25.1923C22.2504 24.8704 21.987 24.607 21.665 24.607H12.7568L12.9265 24.5601C13.2367 24.4782 13.424 24.1563 13.3421 23.8461L12.6397 21.2181C13.4533 20.6445 13.9449 19.7198 13.9449 18.7014C13.9449 17.0976 12.71 15.7749 11.1472 15.6344L10.919 14.7916C11.1707 14.7214 11.4282 14.6453 11.7033 14.5634C14.1088 13.8552 17.252 12.9362 21.3195 12.6436C21.4892 12.6319 21.6531 12.6202 21.8228 12.6085C21.8697 12.6085 21.9165 12.6026 21.9633 12.6026C22.1623 12.5909 22.3555 12.5851 22.5545 12.5734C22.6013 12.5734 22.654 12.5675 22.7008 12.5675C22.8588 12.5616 23.0227 12.5558 23.1807 12.5558C23.2393 12.5558 23.2978 12.5558 23.3505 12.5499C23.5553 12.5441 23.7602 12.5441 23.965 12.5441C24.2869 12.5441 24.5503 12.2807 24.5503 11.9588V4.44344C24.5503 4.11568 24.287 3.85812 23.965 3.85812L23.9656 3.85862ZM23.3276 11.3739C23.1989 11.3739 23.0701 11.3798 22.9413 11.3798C22.8769 11.3798 22.8126 11.3857 22.7482 11.3857C22.6662 11.3857 22.5843 11.3915 22.5023 11.3915C22.4263 11.3915 22.356 11.3974 22.2799 11.4032C22.2097 11.4091 22.1395 11.4091 22.0751 11.4149C21.9931 11.4208 21.9112 11.4208 21.8293 11.4266H21.7766V4.96497H21.8175C21.9053 4.97082 21.9931 4.97667 22.0868 4.97667C22.1512 4.98253 22.2097 4.98253 22.2741 4.98838C22.3502 4.99423 22.4263 4.99423 22.5023 5.00008C22.5843 5.00594 22.6604 5.00594 22.7423 5.00594C22.8067 5.00594 22.8711 5.01179 22.9413 5.01179C23.0701 5.01764 23.1988 5.01764 23.3218 5.01764H23.3744V11.368C23.3627 11.3738 23.3452 11.3738 23.3276 11.3738L23.3276 11.3739ZM11.4756 16.8874C12.2248 17.1449 12.7691 17.8589 12.7691 18.6959C12.7691 19.17 12.5994 19.6148 12.3009 19.9543L11.821 18.1575L11.4756 16.8874ZM10.6913 18.4911L11.3879 21.0898V21.0956L12.0551 23.5773L8.73064 24.4728L6.27237 15.3012C6.30164 15.3071 6.32505 15.3129 6.35431 15.3188C6.37187 15.3188 6.38358 15.3246 6.40113 15.3246C6.4421 15.3305 6.48307 15.3363 6.52405 15.348C6.54161 15.348 6.55917 15.3539 6.57672 15.3539C6.61769 15.3597 6.65866 15.3656 6.69378 15.3714C6.71134 15.3714 6.73475 15.3773 6.75232 15.3773C6.79329 15.3832 6.83425 15.389 6.87523 15.389C6.89279 15.389 6.9162 15.3949 6.93376 15.3949C6.97473 15.4007 7.0157 15.4007 7.06252 15.4066C7.08008 15.4066 7.09764 15.4124 7.1152 15.4124C7.16202 15.4183 7.20885 15.4183 7.25567 15.4241H7.29664C7.35517 15.4241 7.4137 15.43 7.47223 15.43H7.47808H7.66537C7.72391 15.43 7.78243 15.43 7.84096 15.4241H7.88193C7.93461 15.4241 7.99314 15.4183 8.04581 15.4124C8.06923 15.4124 8.09264 15.4066 8.11605 15.4066C8.14531 15.4066 8.18043 15.4007 8.21555 15.3949C8.26823 15.389 8.32675 15.3832 8.38529 15.3773C8.40285 15.3773 8.41455 15.3714 8.43211 15.3714C8.84767 15.3129 9.29837 15.2193 9.78416 15.0905L10.6913 18.4911ZM11.3644 13.4341C10.8962 13.5687 10.4572 13.6975 10.0475 13.8146H10.0417C9.51491 13.9609 8.98229 14.0955 8.49067 14.1833H8.47896C8.43214 14.1892 8.38531 14.2009 8.33849 14.2067H8.32678C8.25655 14.2184 8.18631 14.2243 8.11608 14.236C8.09267 14.236 8.0634 14.2418 8.03999 14.2418C8.01658 14.2418 7.99316 14.2477 7.96975 14.2477C7.93464 14.2477 7.89952 14.2535 7.87025 14.2535H7.81757C7.7649 14.2535 7.71222 14.2594 7.6654 14.2594H7.65369C7.58345 14.2594 7.51322 14.2594 7.44298 14.2535H7.39031C7.32007 14.2477 7.24984 14.2477 7.1796 14.2418C7.16204 14.2418 7.14448 14.236 7.12692 14.236C7.05669 14.2301 6.99231 14.2243 6.92207 14.2126C6.91037 14.2126 6.89866 14.2067 6.8811 14.2067C6.81672 14.2009 6.75234 14.1892 6.68795 14.1775C6.66454 14.1716 6.64698 14.1716 6.62357 14.1658L6.43042 14.1306C6.40701 14.1248 6.37775 14.1189 6.35433 14.1131L6.1963 14.078C6.15533 14.0663 6.11437 14.0545 6.07339 14.0487C6.03827 14.037 6.00901 14.0311 5.97389 14.0194C3.45713 13.282 1.61346 10.9525 1.61346 8.19564C1.61346 6.57437 2.24555 5.05263 3.38693 3.90542C4.52241 2.7641 6.04415 2.13196 7.66543 2.13196C8.54335 2.13196 9.79004 2.49484 11.3703 2.95723C13.7115 3.64203 16.7318 4.53168 20.6179 4.877V11.5142C16.7257 11.8654 13.7056 12.7491 11.3644 13.4339L11.3644 13.4341Z" fill="#212121"/>
<path d="M7.35486 3.94629C5.08388 3.94629 3.23438 5.79579 3.23438 8.0726C3.23438 10.3494 5.08388 12.1989 7.35486 12.1989C9.62583 12.1989 11.4753 10.3494 11.4753 8.0726C11.4753 5.80163 9.62583 3.94629 7.35486 3.94629V3.94629ZM7.35486 11.0282C5.72775 11.0282 4.40497 9.69954 4.40497 8.07244C4.40497 6.43944 5.72775 5.11672 7.35486 5.11672C8.98196 5.11672 10.3047 6.44533 10.3047 8.07244C10.3047 9.70543 8.98196 11.0282 7.35486 11.0282V11.0282Z" fill="#212121"/>
<path d="M25.7792 6.48676C25.8612 6.48676 25.949 6.4692 26.0309 6.42823L28.4599 5.26936C28.7525 5.12889 28.8754 4.78356 28.735 4.49091C28.5945 4.19825 28.2492 4.07535 27.9565 4.21582L25.5275 5.37469C25.2349 5.51516 25.112 5.86048 25.2524 6.15314C25.3519 6.36385 25.5626 6.48676 25.7792 6.48676H25.7792Z" fill="#212121"/>
<path d="M29.0979 7.65067L26.3295 7.59214C26.0076 7.58629 25.7384 7.84381 25.7325 8.16574C25.7267 8.48767 25.9842 8.7569 26.3061 8.76273L29.0745 8.82126H29.0862C29.4023 8.82126 29.6657 8.56959 29.6716 8.24766C29.6775 7.92573 29.4199 7.66234 29.098 7.65067H29.0979Z" fill="#212121"/>
<path d="M28.1208 11.1336L25.7621 9.86935C25.4753 9.71717 25.1241 9.82253 24.9719 10.1093C24.8197 10.3961 24.9251 10.7473 25.2119 10.8995L27.5706 12.1637C27.6584 12.2106 27.7521 12.234 27.8457 12.234C28.0564 12.234 28.2554 12.1228 28.3608 11.9238C28.5129 11.6428 28.4076 11.2917 28.1208 11.1336H28.1208Z" fill="#212121"/>
</svg>
