<svg width="30" height="32" viewBox="0 0 30 32" fill="none" xmlns="http://www.w3.org/2000/svg">
<path d="M6.9431 0.42627C5.15007 0.42836 3.43088 1.14162 2.16293 2.40951C0.894974 3.6774 0.181769 5.39659 0.179688 7.18968V24.8786C0.179688 27.295 1.46875 29.5277 3.56139 30.736C5.65404 31.9439 8.23216 31.9439 10.3248 30.736C12.4175 29.5278 13.7065 27.295 13.7065 24.8786V7.18968C13.7044 5.39665 12.9912 3.67746 11.7233 2.40951C10.4554 1.14156 8.73619 0.428351 6.9431 0.42627V0.42627ZM6.9431 30.6015C5.42572 30.5996 3.97136 29.9962 2.89831 28.9234C1.8255 27.8503 1.22212 26.3959 1.22021 24.8786V19.1037C1.90749 19.7993 2.84373 20.1925 3.82152 20.1962H10.0647C10.4779 20.1974 10.8878 20.1259 11.2764 19.9856C11.8015 19.8028 12.2769 19.5008 12.666 19.1037V24.8786C12.6641 26.396 12.0607 27.8503 10.9879 28.9234C9.91484 29.9962 8.46042 30.5996 6.9431 30.6015ZM10.5849 19.0962C10.414 19.1341 10.2398 19.1538 10.0647 19.1555H3.82152C3.6464 19.1538 3.47221 19.1339 3.30126 19.0962V7.33357C3.28686 6.45073 3.58531 5.5909 4.14367 4.90671C4.70179 4.22246 5.48405 3.75773 6.35202 3.5947C7.40741 3.42096 8.48557 3.72012 9.30057 4.41225C10.1158 5.10465 10.5854 6.12032 10.585 7.18962L10.5849 19.0962ZM12.666 16.5542C12.6669 17.3731 12.2811 18.1444 11.6255 18.6352V7.18944C11.6262 5.81583 11.0234 4.51125 9.97709 3.62098C8.93098 2.73094 7.54649 2.34517 6.19077 2.56583C5.07848 2.76905 4.07393 3.35924 3.35466 4.23162C2.63533 5.10423 2.24795 6.20278 2.26074 7.33345V18.6353C1.60509 18.1446 1.21926 17.3732 1.22021 16.5543V7.18956C1.22021 5.14496 2.31092 3.25578 4.08166 2.23339C5.85239 1.21124 8.03381 1.21124 9.80454 2.23339C11.5753 3.25578 12.666 5.14502 12.666 7.18956V16.5542Z" fill="#212121"/>
<path d="M22.5515 0.42627C20.7585 0.42836 19.0393 1.14162 17.7713 2.40951C16.5034 3.6774 15.7902 5.39659 15.7881 7.18968V24.8786C15.7881 27.295 17.0771 29.5277 19.1698 30.736C21.2624 31.9439 23.8405 31.9439 25.9332 30.736C28.0258 29.5278 29.3149 27.295 29.3149 24.8786V7.18968C29.3128 5.39665 28.5995 3.67746 27.3316 2.40951C26.0638 1.14156 24.3446 0.428351 22.5515 0.42627V0.42627ZM22.5515 30.6015C21.0341 30.5996 19.5798 29.9962 18.5067 28.9234C17.4339 27.8503 16.8305 26.3959 16.8286 24.8786V19.1037C17.5159 19.7993 18.4521 20.1925 19.4299 20.1962H25.6731C26.0862 20.1974 26.4962 20.1259 26.8848 19.9856C27.4099 19.8028 27.8853 19.5008 28.2744 19.1037V24.8786C28.2725 26.396 27.6691 27.8503 26.5963 28.9234C25.5232 29.9962 24.0688 30.5996 22.5515 30.6015V30.6015ZM26.1933 19.0962C26.0224 19.1341 25.8482 19.1538 25.6731 19.1555H19.4299C19.2548 19.1538 19.0806 19.1339 18.9097 19.0962V7.33357C18.8953 6.45073 19.1937 5.5909 19.7521 4.90671C20.3102 4.22246 21.0924 3.75773 21.9604 3.5947C23.0158 3.42096 24.094 3.72012 24.909 4.41225C25.7242 5.10465 26.1938 6.12032 26.1934 7.18962L26.1933 19.0962ZM28.2744 16.5542C28.2753 17.3731 27.8895 18.1444 27.2338 18.6352V7.18944C27.2345 5.81583 26.6318 4.51125 25.5855 3.62098C24.5394 2.73094 23.1549 2.34517 21.7992 2.56583C20.6869 2.76905 19.6823 3.35924 18.963 4.23162C18.2437 5.10423 17.8563 6.20278 17.8691 7.33345V18.6353C17.2135 18.1446 16.8277 17.3732 16.8286 16.5543V7.18956C16.8286 5.14496 17.9193 3.25578 19.69 2.23339C21.4608 1.21124 23.6422 1.21124 25.4129 2.23339C27.1837 3.25578 28.2744 5.14502 28.2744 7.18956V16.5542Z" fill="#212121"/>
</svg>
