<svg width="28" height="28" viewBox="0 0 28 28" fill="none" xmlns="http://www.w3.org/2000/svg">
<path d="M13.6009 5.48901C12.1963 5.48901 11.0537 6.63161 11.0537 8.03621V19.3397C11.0537 20.7443 12.1963 21.8869 13.6009 21.8869C15.0055 21.8869 16.1481 20.7443 16.1481 19.3397V8.03621C16.1481 6.63161 15.0055 5.48901 13.6009 5.48901ZM15.4689 19.3397C15.4689 20.3697 14.631 21.2077 13.6009 21.2077C12.5709 21.2077 11.7329 20.3698 11.7329 19.3397L11.7331 8.03621C11.7331 7.00617 12.571 6.16821 13.6011 6.16821C14.6312 6.16821 15.4691 7.00611 15.4691 8.03621L15.4689 19.3397Z" fill="#212121"/>
<path d="M14.1106 8.21582H13.0917C12.904 8.21582 12.752 8.36791 12.752 8.55553C12.752 8.74315 12.904 8.89524 13.0917 8.89524H14.1106C14.2983 8.89524 14.4503 8.74315 14.4503 8.55553C14.4501 8.36791 14.2983 8.21582 14.1106 8.21582Z" fill="#212121"/>
<path d="M14.1106 10.269H13.0917C12.904 10.269 12.752 10.4211 12.752 10.6088C12.752 10.7964 12.904 10.9485 13.0917 10.9485H14.1106C14.2983 10.9485 14.4503 10.7964 14.4503 10.6088C14.4501 10.4211 14.2983 10.269 14.1106 10.269Z" fill="#212121"/>
<path d="M14.1106 12.3218H13.0917C12.904 12.3218 12.752 12.4739 12.752 12.6615C12.752 12.8491 12.904 13.0012 13.0917 13.0012H14.1106C14.2983 13.0012 14.4503 12.8491 14.4503 12.6615C14.4501 12.4739 14.2983 12.3218 14.1106 12.3218V12.3218Z" fill="#212121"/>
<path d="M14.1106 14.3748H13.0917C12.904 14.3748 12.752 14.5268 12.752 14.7145C12.752 14.9021 12.904 15.0542 13.0917 15.0542H14.1106C14.2983 15.0542 14.4503 14.9021 14.4503 14.7145C14.4501 14.5268 14.2983 14.3748 14.1106 14.3748Z" fill="#212121"/>
<path d="M14.1106 16.428H13.0917C12.904 16.428 12.752 16.5801 12.752 16.7677C12.752 16.9553 12.904 17.1074 13.0917 17.1074H14.1106C14.2983 17.1074 14.4503 16.9553 14.4503 16.7677C14.4501 16.5801 14.2983 16.428 14.1106 16.428Z" fill="#212121"/>
<path d="M14.1106 18.4807H13.0917C12.904 18.4807 12.752 18.6328 12.752 18.8204C12.752 19.0081 12.904 19.1602 13.0917 19.1602H14.1106C14.2983 19.1602 14.4503 19.0081 14.4503 18.8204C14.4501 18.6328 14.2983 18.4807 14.1106 18.4807Z" fill="#212121"/>
<path d="M26.654 16.2583C27.2074 15.744 27.5249 15.0157 27.5249 14.2602V6.46274C27.5249 5.46066 26.7097 4.64543 25.7075 4.64543H21.9547L21.9114 3.31828C21.9054 3.13515 21.7552 2.98969 21.5719 2.98969H21.4248C21.3651 1.76278 20.3511 0.782227 19.1097 0.782227H7.61876C6.37736 0.782227 5.36339 1.76278 5.30371 2.98969H5.15636C4.97299 2.98969 4.82279 3.13514 4.81687 3.31828L4.78038 4.43244H0.694235C0.6035 4.43244 0.516556 4.46868 0.452591 4.53336C0.388862 4.5978 0.353565 4.68522 0.354511 4.77595C0.35759 5.03394 0.475806 11.0876 4.49136 13.277L4.14098 23.9928C3.45014 24.0085 2.89224 24.5725 2.89224 25.2669V26.6751C2.89224 27.3794 3.46531 27.9523 4.16942 27.9523H22.5591C23.2631 27.9523 23.836 27.3794 23.836 26.6751V25.2669C23.836 24.5726 23.2781 24.0082 22.5873 23.9928L22.4617 20.1479C22.4681 20.1427 22.4762 20.1408 22.4823 20.1348L26.654 16.2583ZM5.48549 3.669H21.2436L21.9081 23.9903H4.82122L5.48549 3.669ZM22.0369 7.14988L25.0849 7.14444V13.9976C25.0849 14.0618 25.0582 14.1237 25.011 14.1675L22.3475 16.6427L22.0369 7.14988ZM7.61909 1.4613H19.11C19.9764 1.4613 20.6807 2.13813 20.7402 2.98957H5.98942C6.04864 2.13813 6.75297 1.4613 7.61933 1.4613H7.61909ZM1.05092 5.11157H4.75875L4.51711 12.5039C1.63512 10.6691 1.1355 6.3597 1.05096 5.11157H1.05092ZM23.1571 25.2673V26.6755C23.1571 27.0052 22.8889 27.2734 22.5593 27.2734H4.16971C3.83994 27.2734 3.57199 27.0052 3.57199 26.6757V25.2675C3.57199 24.938 3.84017 24.6698 4.16971 24.6698H22.5593C22.8889 24.6696 23.1571 24.9377 23.1571 25.2673ZM22.3767 17.5426L25.4733 14.6654C25.6584 14.4936 25.7642 14.2503 25.7642 13.998V7.14479C25.7642 6.77356 25.4622 6.4713 25.0908 6.4713H22.0148L21.9773 5.32517H25.7079C26.3352 5.32494 26.846 5.83571 26.846 6.46305V14.2605C26.846 14.8279 26.6077 15.3747 26.1922 15.7611L22.4327 19.2543L22.3767 17.5426Z" fill="#212121"/>
</svg>
