<svg width="24" height="33" viewBox="0 0 24 33" fill="none" xmlns="http://www.w3.org/2000/svg">
<path d="M22.4896 9.25781H12.1975V1.38312C12.1975 1.09007 11.9778 0.870361 11.6848 0.870361C11.3917 0.870361 11.172 1.09008 11.172 1.38312V9.29443H0.879945C0.586901 9.29443 0.367188 9.51415 0.367188 9.80719V12.078C0.367188 12.371 0.586907 12.5907 0.879945 12.5907H22.4896C22.7826 12.5907 23.0023 12.371 23.0023 12.078V9.80719C23.0023 9.51415 22.7826 9.25764 22.4896 9.25764L22.4896 9.25781ZM21.9768 11.5288H1.3927V10.2836H21.9768V11.5288ZM4.76234 14.8985V17.206C4.76234 17.4991 4.54262 17.7188 4.24958 17.7188C3.95654 17.7188 3.73683 17.499 3.73683 17.206V14.8985C3.73683 14.6054 3.95655 14.3857 4.24958 14.3857C4.54263 14.3857 4.76234 14.642 4.76234 14.8985V14.8985ZM4.76234 29.9886V32.2961C4.76234 32.5892 4.54262 32.8089 4.24958 32.8089C3.95654 32.8089 3.73683 32.5891 3.73683 32.2961V29.9886C3.73683 29.6955 3.95655 29.4758 4.24958 29.4758C4.54263 29.4758 4.76234 29.7323 4.76234 29.9886V29.9886ZM9.70705 14.8985V17.206C9.70705 17.4991 9.48733 17.7188 9.19429 17.7188C8.90125 17.7188 8.68153 17.499 8.68153 17.206V14.8985C8.68153 14.6054 8.90125 14.3857 9.19429 14.3857C9.48708 14.3857 9.70705 14.642 9.70705 14.8985V14.8985ZM9.70705 29.9886V32.2961C9.70705 32.5892 9.48733 32.8089 9.19429 32.8089C8.90125 32.8089 8.68153 32.5891 8.68153 32.2961V29.9886C8.68153 29.6955 8.90125 29.4758 9.19429 29.4758C9.48708 29.4758 9.70705 29.7323 9.70705 29.9886V29.9886ZM14.6883 14.8985V17.206C14.6883 17.4991 14.4685 17.7188 14.1755 17.7188C13.8825 17.7188 13.6627 17.499 13.6627 17.206V14.8985C13.6627 14.6054 13.8825 14.3857 14.1755 14.3857C14.4683 14.3857 14.6883 14.642 14.6883 14.8985V14.8985ZM14.6883 29.9886V32.2961C14.6883 32.5892 14.4685 32.8089 14.1755 32.8089C13.8825 32.8089 13.6627 32.5891 13.6627 32.2961V29.9886C13.6627 29.6955 13.8825 29.4758 14.1755 29.4758C14.4683 29.4758 14.6883 29.7323 14.6883 29.9886V29.9886ZM19.6327 14.8985V17.206C19.6327 17.4991 19.413 17.7188 19.1199 17.7188C18.8269 17.7188 18.6072 17.499 18.6072 17.206V14.8985C18.6072 14.6054 18.8269 14.3857 19.1199 14.3857C19.413 14.3857 19.6327 14.642 19.6327 14.8985V14.8985ZM4.76234 19.8797V22.1872C4.76234 22.4803 4.54262 22.7 4.24958 22.7C3.95654 22.7 3.73683 22.4802 3.73683 22.1872V19.8797C3.73683 19.5866 3.95655 19.3669 4.24958 19.3669C4.54263 19.3669 4.76234 19.5866 4.76234 19.8797ZM9.70705 19.8797V22.1872C9.70705 22.4803 9.48733 22.7 9.19429 22.7C8.90125 22.7 8.68153 22.4802 8.68153 22.1872V19.8797C8.68153 19.5866 8.90125 19.3669 9.19429 19.3669C9.48708 19.3669 9.70705 19.5866 9.70705 19.8797ZM14.6883 19.8797V22.1872C14.6883 22.4803 14.4685 22.7 14.1755 22.7C13.8825 22.7 13.6627 22.4802 13.6627 22.1872V19.8797C13.6627 19.5866 13.8825 19.3669 14.1755 19.3669C14.4683 19.3669 14.6883 19.5866 14.6883 19.8797ZM19.6327 19.8797V22.1872C19.6327 22.4803 19.413 22.7 19.1199 22.7C18.8269 22.7 18.6072 22.4802 18.6072 22.1872V19.8797C18.6072 19.5866 18.8269 19.3669 19.1199 19.3669C19.413 19.3669 19.6327 19.5866 19.6327 19.8797ZM4.76234 24.9342V27.2417C4.76234 27.5348 4.54262 27.7545 4.24958 27.7545C3.95654 27.7545 3.73683 27.5348 3.73683 27.2417V24.9342C3.73683 24.6411 3.95655 24.4214 4.24958 24.4214C4.54263 24.4214 4.76234 24.6412 4.76234 24.9342ZM9.70705 24.9342V27.2417C9.70705 27.5348 9.48733 27.7545 9.19429 27.7545C8.90125 27.7545 8.68153 27.5348 8.68153 27.2417V24.9342C8.68153 24.6411 8.90125 24.4214 9.19429 24.4214C9.48708 24.4214 9.70705 24.6412 9.70705 24.9342ZM14.6883 24.9342V27.2417C14.6883 27.5348 14.4685 27.7545 14.1755 27.7545C13.8825 27.7545 13.6627 27.5348 13.6627 27.2417V24.9342C13.6627 24.6411 13.8825 24.4214 14.1755 24.4214C14.4683 24.4214 14.6883 24.6412 14.6883 24.9342ZM19.6327 24.9342V27.2417C19.6327 27.5348 19.413 27.7545 19.1199 27.7545C18.8269 27.7545 18.6072 27.5348 18.6072 27.2417V24.9342C18.6072 24.6411 18.8269 24.4214 19.1199 24.4214C19.413 24.4214 19.6327 24.6412 19.6327 24.9342ZM19.6327 29.9884V32.296C19.6327 32.589 19.413 32.8087 19.1199 32.8087C18.8269 32.8087 18.6072 32.589 18.6072 32.296V29.9884C18.6072 29.6954 18.8269 29.4757 19.1199 29.4757C19.413 29.4757 19.6327 29.7322 19.6327 29.9884Z" fill="#212121"/>
</svg>
