<svg width="28" height="31" viewBox="0 0 28 31" fill="none" xmlns="http://www.w3.org/2000/svg">
<path d="M27.3353 0.80127H0.420774C0.216385 0.80127 0.0507812 0.966873 0.0507812 1.17126V28.0863C0.0507812 28.1844 0.0895687 28.2784 0.159014 28.3479C0.228459 28.4173 0.322525 28.4563 0.420768 28.4563H1.90075V29.9066H1.90052C1.90052 30.0046 1.93954 30.0987 2.00898 30.1681C2.0782 30.2375 2.17249 30.2766 2.2705 30.2766H7.14283C7.24108 30.2766 7.33515 30.2375 7.40459 30.1681C7.4738 30.0987 7.51282 30.0046 7.51282 29.9066V28.4563H20.5836V29.9066C20.5836 30.0046 20.6226 30.0987 20.6921 30.1681C20.7613 30.2375 20.8553 30.2766 20.9536 30.2766H25.8408C25.9388 30.2766 26.0331 30.2375 26.1023 30.1681C26.1717 30.0987 26.2108 30.0046 26.2108 29.9066V28.4563H27.3207C27.4187 28.4563 27.5128 28.4173 27.5823 28.3479C27.6517 28.2784 27.6905 28.1844 27.6905 28.0863V1.17126C27.6907 0.972683 27.5339 0.809172 27.3354 0.80127H27.3353ZM6.77273 29.5328H2.64036V28.4563H6.77273V29.5328ZM25.4748 29.5328H21.3239V28.4563H25.4711L25.4748 29.5328ZM26.9548 27.7126H0.790665V1.54135H26.9655L26.9548 27.7126Z" fill="#212121"/>
<path d="M2.79676 22.3516H3.65867V24.4788C3.65867 24.5771 3.69769 24.6711 3.76714 24.7404C3.83658 24.8098 3.93065 24.8488 4.02866 24.8488H23.7296C23.8276 24.8488 23.9217 24.8098 23.9912 24.7404C24.0606 24.6711 24.0994 24.5771 24.0994 24.4788V4.77843C24.0994 4.68019 24.0606 4.58612 23.9912 4.51668C23.9217 4.44746 23.8276 4.40845 23.7296 4.40845H4.02866C3.82427 4.40845 3.65867 4.57405 3.65867 4.77844V6.68736H2.79676C2.59237 6.68736 2.42676 6.85296 2.42676 7.05735V10.8199C2.42676 10.918 2.46578 11.012 2.53523 11.0815C2.60444 11.1509 2.69851 11.1899 2.79675 11.1899H3.65866V17.8493H2.79675C2.59236 17.8493 2.42676 18.0149 2.42676 18.2191V21.9816C2.42676 22.0799 2.46578 22.174 2.53522 22.2432C2.60444 22.3126 2.6985 22.3516 2.79674 22.3516L2.79676 22.3516ZM3.16675 7.43106H4.89456V10.4537H3.16675V7.43106ZM4.39867 11.1937H5.26059L5.26082 11.1934C5.35883 11.1934 5.4529 11.1546 5.52234 11.0852C5.59179 11.0157 5.63057 10.9217 5.63057 10.8237V7.05733C5.63057 6.95931 5.59179 6.86501 5.52234 6.7958C5.45289 6.72636 5.35883 6.68734 5.26082 6.68734H4.39867V5.14837H23.3594V24.1091H4.39867V22.3518H5.26082C5.35883 22.3518 5.4529 22.3128 5.52234 22.2433C5.59179 22.1741 5.63057 22.0801 5.63057 21.9818V18.2192C5.63057 18.1212 5.59179 18.0271 5.52234 17.9577C5.45289 17.8883 5.35883 17.8495 5.26082 17.8495H4.39867L4.39867 11.1937ZM3.16675 18.5933H4.89456V21.6159L3.16675 21.6157V18.5933Z" fill="#212121"/>
<path d="M13.8806 18.9519C15.0261 18.951 16.1244 18.4951 16.934 17.6847C17.7437 16.8741 18.1982 15.7754 18.198 14.6296C18.1975 13.4841 17.7423 12.3855 16.9324 11.5754C16.1223 10.7653 15.0237 10.31 13.878 10.3096C12.7325 10.3093 11.6337 10.7639 10.8231 11.5735C10.0125 12.3832 9.55656 13.4816 9.55566 14.627C9.55659 15.7739 10.0125 16.8734 10.8236 17.6843C11.6344 18.4951 12.7339 18.951 13.8806 18.9519ZM11.2205 12.2337L11.7716 12.7811C11.8443 12.8536 11.9619 12.8536 12.0343 12.7811C12.107 12.7087 12.107 12.5909 12.0343 12.5185L11.4832 11.9745C12.0945 11.421 12.8791 11.0968 13.7029 11.0571V11.8377C13.7029 11.9399 13.7858 12.0228 13.888 12.0228C13.9902 12.0228 14.0729 11.9399 14.0729 11.8377V11.0571C14.8967 11.0968 15.6813 11.421 16.2926 11.9745L15.7451 12.5219V12.5222C15.6727 12.5946 15.6727 12.7124 15.7451 12.7849C15.8176 12.8573 15.9354 12.8573 16.0078 12.7849L16.5553 12.2374V12.2372C17.109 12.8487 17.4332 13.6333 17.473 14.4571H16.6961C16.5939 14.4571 16.511 14.5398 16.511 14.642C16.511 14.7442 16.5939 14.8271 16.6961 14.8271H17.473C17.4332 15.6509 17.109 16.4355 16.5553 17.0468L16.0078 16.4994C15.9354 16.4267 15.8176 16.4267 15.7451 16.4994C15.6727 16.5719 15.6727 16.6894 15.7451 16.7619L16.2926 17.3093V17.3095C15.6813 17.863 14.8967 18.1872 14.0729 18.227V17.4243C14.0729 17.3221 13.9902 17.2392 13.888 17.2392C13.7858 17.2392 13.7029 17.3221 13.7029 17.4243V18.2012C12.8791 18.1614 12.0945 17.8372 11.4832 17.2835L12.0343 16.736C12.107 16.6636 12.107 16.5458 12.0343 16.4734C11.9619 16.4009 11.8443 16.4009 11.7716 16.4734L11.2205 17.0173C10.6682 16.4053 10.3453 15.6207 10.3068 14.7974H11.0837C11.1856 14.7974 11.2686 14.7147 11.2686 14.6125C11.2686 14.5103 11.1857 14.4274 11.0837 14.4274H10.3068C10.3512 13.6131 10.6738 12.8387 11.2205 12.2336V12.2337Z" fill="#212121"/>
<path d="M13.8807 16.9575C14.4978 16.9575 15.0899 16.7123 15.5263 16.2758C15.9627 15.8394 16.2078 15.2476 16.2078 14.6303C16.2078 14.0131 15.9627 13.4213 15.5263 12.9849C15.0899 12.5485 14.4978 12.3032 13.8807 12.3032C13.2636 12.3032 12.6716 12.5485 12.2352 12.9849C11.7988 13.4213 11.5537 14.0131 11.5537 14.6303C11.5546 15.2471 11.8001 15.8384 12.2363 16.2746C12.6725 16.7111 13.2638 16.9563 13.8807 16.9575L13.8807 16.9575ZM13.8807 13.0432C14.3016 13.0432 14.7052 13.2105 15.003 13.508C15.3005 13.8058 15.4678 14.2094 15.4678 14.6303C15.4678 15.0514 15.3005 15.455 15.003 15.7526C14.7053 16.0503 14.3016 16.2175 13.8807 16.2175C13.4596 16.2175 13.056 16.0503 12.7585 15.7526C12.4607 15.455 12.2935 15.0514 12.2935 14.6303C12.2935 14.2092 12.4607 13.8051 12.7582 13.5068C13.0557 13.2086 13.4594 13.0404 13.8807 13.0395L13.8807 13.0432Z" fill="#212121"/>
<path d="M20.5834 14.2203V17.254C20.5834 17.4584 20.749 17.624 20.9534 17.624C21.1578 17.624 21.3234 17.4584 21.3234 17.254V14.2203C21.7159 14.1011 22.0269 13.7999 22.1586 13.4113C22.2903 13.0228 22.2269 12.5947 21.9877 12.2612C21.7487 11.9276 21.3636 11.73 20.9534 11.73C20.543 11.73 20.1579 11.9276 19.9189 12.2612C19.6799 12.5947 19.6163 13.0228 19.7482 13.4113C19.8799 13.7999 20.1909 14.1012 20.5834 14.2203H20.5834ZM20.9534 12.4813V12.4816C21.1671 12.483 21.3587 12.6128 21.4395 12.8107C21.5201 13.0086 21.4741 13.2355 21.3225 13.386C21.1708 13.5365 20.9436 13.5811 20.7464 13.4989C20.549 13.4169 20.4206 13.2241 20.4206 13.0107C20.4206 12.7164 20.6591 12.4779 20.9534 12.4779L20.9534 12.4813Z" fill="#212121"/>
</svg>
