<svg width="34" height="30" viewBox="0 0 34 30" fill="none" xmlns="http://www.w3.org/2000/svg">
<path d="M32.9064 10.9691H18.6941V9.5062H23.9492C24.1469 9.5062 24.3074 9.34576 24.3074 9.14801V0.369424C24.3074 0.17168 24.1469 0.0112305 23.9492 0.0112305H9.61711C9.41936 0.0112305 9.25891 0.171674 9.25891 0.369424V9.14735C9.25891 9.3451 9.41936 9.50555 9.61711 9.50555H14.8722V10.9684H6.39189V8.32441C6.39189 8.15962 6.27845 8.02651 6.12669 7.98487L6.85994 5.25319C6.91129 5.06208 6.79811 4.86561 6.60675 4.81452L5.39599 4.48852C5.30401 4.46373 5.20616 4.47676 5.12389 4.52403C5.04137 4.57129 4.98133 4.64973 4.9568 4.7417L4.8265 5.22891V4.51941C4.8265 4.32166 4.66606 4.16121 4.46831 4.16121H3.21412C3.01637 4.16121 2.85592 4.32166 2.85592 4.51941V5.54671L2.68015 5.06666C2.64744 4.97724 2.58076 4.90468 2.49441 4.86483C2.40806 4.82497 2.30944 4.82063 2.22002 4.85307L1.04477 5.28305C0.859034 5.35076 0.763478 5.55668 0.831695 5.74242L1.65383 7.99122C1.51715 8.0418 1.41904 8.17031 1.41904 8.32463V10.9687L0.658975 10.9684C0.461231 10.9689 0.300781 11.1294 0.300781 11.3271V28.7051C0.300781 28.9028 0.461225 29.0633 0.658975 29.0633H11.4082C11.6059 29.0633 11.7664 28.9028 11.7664 28.7051V14.1938H29.5623V28.7051C29.5623 28.9028 29.7227 29.0633 29.9205 29.0633H32.9063C33.104 29.0633 33.2645 28.9028 33.2645 28.7051L33.2647 13.8354V11.3272C33.265 11.1295 33.1046 10.9691 32.9068 10.9691L32.9064 10.9691ZM23.5902 0.727422V7.29599H9.975V0.727422H23.5902ZM9.975 8.01282H23.5909V8.78924L18.3355 8.78949H9.97552L9.975 8.01282ZM15.5883 9.50614H17.977V10.969H15.5883V9.50614ZM5.55589 5.27401L6.07478 5.41402L5.38954 7.96655H4.83283L5.55589 5.27401ZM3.57178 4.87801H4.10906V7.89864L4.09169 7.96635H3.74014L3.57203 7.50674L3.57178 4.87801ZM2.12981 5.64932L2.87712 7.69373C2.87737 7.6945 2.87712 7.69527 2.87737 7.69603L2.97676 7.96659H2.40754L1.62778 5.83303L2.12981 5.64932ZM2.13543 8.68324H5.6757V10.9691H2.13569V8.68324H2.13543ZM1.01767 11.6857H32.5485V13.4772H1.01767V11.6857ZM1.01767 28.3468V18.1352H11.05V28.3468H1.01767ZM11.05 17.4184H1.01767V14.1939H11.05V17.4184ZM32.5478 28.3468H30.2783L30.2786 14.194H32.5481L32.5478 28.3468Z" fill="#212121"/>
<path d="M5.3162 16.1348H6.74947C6.94721 16.1348 7.10766 15.9744 7.10766 15.7767C7.10766 15.5789 6.94722 15.4185 6.74947 15.4185H5.3162C5.11846 15.4185 4.95801 15.5789 4.95801 15.7767C4.95801 15.9744 5.11794 16.1348 5.3162 16.1348Z" fill="#212121"/>
<path d="M9.79472 21.5383C9.59697 21.5383 9.43652 21.6988 9.43652 21.8965V24.3451C9.43652 24.5429 9.59697 24.7033 9.79472 24.7033C9.99246 24.7033 10.1529 24.5429 10.1529 24.3451V21.8965C10.1529 21.6988 9.99247 21.5383 9.79472 21.5383Z" fill="#212121"/>
</svg>
