<svg width="23" height="32" viewBox="0 0 23 32" fill="none" xmlns="http://www.w3.org/2000/svg">
<path d="M11.2517 17.1365C15.4138 17.1365 18.8101 13.7402 18.8101 9.57815C18.8101 5.41629 15.4138 2.01978 11.2517 2.01978C7.08969 2.01978 3.69336 5.41611 3.69336 9.57815C3.69336 13.7402 7.05627 17.1365 11.2517 17.1365ZM11.2517 2.7523C15.0143 2.7523 18.0776 5.81561 18.0776 9.57815C18.0776 13.3407 15.0143 16.404 11.2517 16.404C7.48919 16.404 4.42589 13.3407 4.42589 9.57815C4.39268 5.81555 7.45595 2.7523 11.2517 2.7523V2.7523Z" fill="#212121"/>
<path d="M19.0421 17.3696C21.1398 15.2719 22.2718 12.5082 22.2718 9.57817C22.2718 9.47829 22.2386 9.37842 22.172 9.31176C22.1053 9.2451 22.0054 9.21189 21.9056 9.21189H20.4073C20.3074 6.88117 19.3751 4.71671 17.7103 3.05199C15.9788 1.35391 13.6813 0.388184 11.2507 0.388184C8.78669 0.388184 6.48915 1.35391 4.75784 3.0854C3.093 4.75024 2.16069 6.91441 2.06086 9.24531H0.562565C0.36282 9.24531 0.196289 9.41184 0.196289 9.61158C0.196289 12.5418 1.32832 15.3386 3.42608 17.403C5.09092 19.0679 7.22191 20.1335 9.51939 20.4995V28.4907H5.78997C5.59022 28.4907 5.42369 28.6573 5.42369 28.857V31.1877C5.42369 31.3875 5.59022 31.554 5.78997 31.554H16.6447C16.8445 31.554 17.011 31.3875 17.011 31.1877V28.857C17.011 28.6573 16.8445 28.4907 16.6447 28.4907H12.9155V20.4995C15.2131 20.1332 17.344 19.0676 19.0421 17.3696L19.0421 17.3696ZM16.3118 30.7882H6.15632V29.19H16.3118V30.7882ZM11.2507 1.12078C15.9121 1.12078 19.708 4.91662 19.708 9.57817C19.708 14.2396 15.9122 18.0355 11.2507 18.0355C6.589 18.0358 2.79328 14.24 2.79328 9.57876C2.79328 4.91709 6.58912 1.12138 11.2507 1.12138V1.12078ZM0.928664 9.94443H2.06069C2.16057 12.242 3.09284 14.4061 4.7245 16.0377C6.45599 17.7692 8.75353 18.7347 11.2174 18.7347C13.6814 18.7347 15.9787 17.7692 17.7102 16.0377C19.3418 14.4061 20.3074 12.2419 20.374 9.94443H21.5061C21.3063 15.4718 16.7779 19.9002 11.2174 19.9002C5.65681 19.8999 1.12844 15.4715 0.928664 9.94443V9.94443ZM10.2518 20.6993H12.183V28.4574H10.2518V20.6993Z" fill="#212121"/>
<path d="M6.82152 9.44483C6.92139 9.44483 6.98805 9.41162 7.05471 9.34496L11.4165 5.24951C11.5496 5.11643 11.5831 4.88324 11.4165 4.75016C11.2834 4.61707 11.0503 4.58362 10.9172 4.75016L6.58829 8.81213C6.4552 8.94521 6.42176 9.1784 6.58829 9.31148C6.65495 9.41159 6.72161 9.4448 6.82148 9.4448L6.82152 9.44483Z" fill="#212121"/>
<path d="M6.78823 11.9753C6.85489 12.0419 6.95476 12.0751 7.05463 12.0751C7.1545 12.0751 7.22116 12.0419 7.28782 11.9753L13.6475 6.01514C13.7806 5.88205 13.814 5.64886 13.6475 5.51578C13.5144 5.38269 13.2812 5.34925 13.1482 5.51578L6.78847 11.4753C6.65515 11.6086 6.65515 11.8416 6.78847 11.9749L6.78823 11.9753Z" fill="#212121"/>
</svg>
