<svg width="13" height="13" viewBox="0 0 13 13" fill="none" xmlns="http://www.w3.org/2000/svg">
<g clip-path="url(#clip0_0:69)">
<path d="M0.421087 1.94351C2.06804 3.34792 4.95793 5.8187 5.80731 6.58909C5.92133 6.69307 6.04363 6.74593 6.17059 6.74593C6.29729 6.74593 6.41938 6.69357 6.53314 6.59008C7.38324 5.81893 10.2731 3.34792 11.9201 1.94351C12.0226 1.85624 12.0383 1.70284 11.9553 1.59615C11.7634 1.34961 11.4772 1.20825 11.1706 1.20825H1.17059C0.863962 1.20825 0.577814 1.34961 0.385931 1.59617C0.302915 1.70284 0.318548 1.85624 0.421087 1.94351Z" fill="white"/>
<path d="M12.0259 2.70462C11.9373 2.66309 11.833 2.67758 11.7593 2.74101C9.93285 4.30002 7.60181 6.29834 6.8684 6.96377C6.45677 7.33791 5.88548 7.33791 5.47288 6.96327C4.69115 6.25407 2.07346 4.01338 0.582508 2.74099C0.508281 2.67755 0.403797 2.66356 0.315906 2.7046C0.227547 2.74592 0.170898 2.83491 0.170898 2.93299V9.8676C0.170898 10.4229 0.619375 10.8745 1.17091 10.8745H11.1709C11.7224 10.8745 12.1709 10.4229 12.1709 9.8676V2.93299C12.1709 2.83491 12.1143 2.74568 12.0259 2.70462Z" fill="white"/>
</g>
<defs>
<clipPath id="clip0_0:69">
<rect width="12" height="12.0828" fill="white" transform="translate(0.170898)"/>
</clipPath>
</defs>
</svg>
