<svg width="12" height="13" viewBox="0 0 12 13" fill="none" xmlns="http://www.w3.org/2000/svg">
<path d="M11.6844 8.86753L10.0062 7.18134C9.40688 6.57913 8.388 6.82004 8.14826 7.60289C7.96846 8.1449 7.36911 8.446 6.82971 8.32554C5.63102 8.02444 4.0128 6.45869 3.71312 5.19405C3.53332 4.65204 3.89293 4.04983 4.43234 3.86919C5.21148 3.62831 5.45122 2.60455 4.85188 2.00235L3.17372 0.31616C2.69424 -0.105387 1.97503 -0.105387 1.55549 0.31616L0.41674 1.46036C-0.722011 2.66477 0.536609 5.85648 3.35352 8.68686C6.17043 11.5172 9.34694 12.8421 10.5456 11.6377L11.6844 10.4935C12.1039 10.0117 12.1039 9.28907 11.6844 8.86753Z" fill="white"/>
</svg>
